<?xml version="1.0" encoding="utf-8"?>
<!-- Generator: Adobe Illustrator 16.0.0, SVG Export Plug-In . SVG Version: 6.00 Build 0)  -->
<!DOCTYPE svg PUBLIC "-//W3C//DTD SVG 1.1//EN" "http://www.w3.org/Graphics/SVG/1.1/DTD/svg11.dtd">
<svg version="1.1" id="Layer_1" xmlns="http://www.w3.org/2000/svg" xmlns:xlink="http://www.w3.org/1999/xlink" x="0px" y="0px"
	 width="400px" height="450px" viewBox="0 0 400 450" style="enable-background:new 0 0 400 450;" xml:space="preserve">
<style type="text/css">
<![CDATA[
	.st0{fill:#F16C46;}
	.st1{fill:#231F20;}
	.st2{fill:#FFFFFF;}
	.st3{fill:#34B9E2;}
]]>
</style>
<g>
	<g>
		<g>
			<path class="st3" d="M347.988,117.349c0,8.567-6.943,15.507-15.514,15.507H312.43c-8.57,0-15.51-6.939-15.51-15.507
				l35.555-50.758c8.57,0,15.514,6.944,15.514,15.507V117.349z"/>
		</g>
		<g>
			<path class="st3" d="M44.805,117.349c0,8.567,6.945,15.507,15.508,15.507h20.052c8.562,0,15.508-6.939,15.508-15.507
				L60.312,66.591c-8.562,0-15.508,6.944-15.508,15.507V117.349z"/>
		</g>
		<g>
			<path class="st3" d="M258.992,400.668h-41.291c8.533-30.051,8.711-83.098-0.025-107.33l22.369,6.209
				C255.549,347.055,257.361,369.541,258.992,400.668z"/>
		</g>
		<g>
			<path class="st3" d="M273.967,426.918c0,6.553-62.303,6.553-62.303,0v-15.842h62.303V426.918z"/>
		</g>
		<g>
			<path class="st3" d="M273.967,411.076c-4.783,9.736-57.521,9.736-62.303,0c1.631-6.994,14.953-24.344,31.158-24.344
				C259.008,386.732,272.334,404.082,273.967,411.076z"/>
		</g>
		<g>
			<path class="st3" d="M131.043,400.668h41.292c-8.528-30.051-8.711-83.098,0.024-107.33l-22.37,6.209
				C134.485,347.055,132.681,369.541,131.043,400.668z"/>
		</g>
		<g>
			<path class="st3" d="M116.067,426.918c0,6.553,62.305,6.553,62.305,0v-15.842h-62.305V426.918z"/>
		</g>
		<g>
			<path class="st3" d="M116.067,411.076c4.79,9.736,57.521,9.736,62.305,0c-1.633-6.994-14.956-24.344-31.16-24.344
				C131.023,386.732,117.699,404.082,116.067,411.076z"/>
		</g>
		<g>
			<path class="st3" d="M311.105,357.123V132.26c0-64.117-51.969-116.092-116.089-116.092c-64.116,0-116.098,51.975-116.098,116.092
				v224.863H311.105z"/>
		</g>
		<g>
			<path class="st3" d="M30.376,278.133L5.56,273.627c2.16-10.877,5.258-21.662,10.107-31.848
				c4.942-10.092,10.876-19.888,18.65-28.358c15.237-17.062,36.31-29.354,58.31-34.03l7.562-1.628
				c19.534-2.677,18.878,23.647,4.149,24.875l-6.018,1.322c-17.532,3.73-33.36,13.141-45.199,26.276
				c-6.033,6.518-10.654,14.248-14.611,22.248C34.638,260.572,32.167,269.299,30.376,278.133z"/>
		</g>
		<g>
			<path class="st3" d="M28.758,292.773c-0.128,4.09-1.223,7.135-3.695,9.338c-2.363,2.195-5.633,3.508-8.924,3.709
				c-3.29,0.193-6.604-0.764-9.051-3.125c-2.338-2.35-4.268-6.148-3.527-11.154c0.211-2.936,0.301-5.879,0.655-8.811l1.289-8.76
				l0.054-0.344l24.816,4.506l-0.035,0.287l-1.055,7.143C28.985,287.955,28.945,290.371,28.758,292.773z"/>
		</g>
		<g>
			<path class="st3" d="M363.961,278.607l24.354-6.545c-1.131-4.762-2.863-9.557-4.387-14.326c-1.924-4.748-3.57-9.549-6.037-14.209
				c-2.156-4.736-4.99-9.252-7.74-13.773c-3.102-4.342-6.166-8.731-9.816-12.632c-7.104-7.946-15.201-14.941-23.73-20.501
				c-2.092-1.504-4.23-2.856-6.406-4.094c-2.162-1.268-4.324-2.589-6.492-3.801c-4.381-2.217-8.748-4.692-13.162-6.592l-6.486-2.954
				c-16.281-7.148-24.926,17.477-10.025,23.139l5.859,2.674c4.047,1.726,7.768,3.896,11.664,5.83l5.555,3.265
				c1.875,1.066,3.684,2.2,5.393,3.445c7.146,4.646,13.455,10.181,18.98,16.351c2.855,3.01,5.184,6.441,7.629,9.781
				c2.133,3.572,4.381,7.07,6.107,10.916c1.988,3.686,3.355,7.76,4.969,11.688C361.469,270.359,362.969,274.355,363.961,278.607z"/>
		</g>
		<g>
			<path class="st3" d="M367.361,293.426c1.744,16.785,29.115,13.588,24.77-4.795c-1.135-5.406-2.195-10.812-3.734-16.264
				l-0.082-0.305l-24.354,6.545l0.064,0.27C365.375,283.619,366.338,288.531,367.361,293.426z"/>
		</g>
	</g>
	<g>
		<polygon class="st1" points="195.673,153.607 164.563,99.724 195.673,45.838 257.895,45.838 289.006,99.724 257.895,153.607 		"/>
	</g>
	<g>
		<g>
			<path class="st2" d="M257.818,85.098c0,6.028-4.885,10.912-10.906,10.912c-6.027,0-10.91-4.883-10.91-10.912
				c0-6.023,4.883-10.911,10.91-10.911C252.934,74.187,257.818,79.075,257.818,85.098z"/>
		</g>
	</g>
	<g>
		<path class="st0" d="M211.521,200.677c-0.076,0.63-0.131,1.271-0.131,1.923c0,8.504,6.893,15.396,15.396,15.396
			c8.498,0,15.389-6.891,15.389-15.396c0-0.651-0.051-1.293-0.129-1.923H211.521z"/>
	</g>
</g>
</svg>
